<svg width="167" height="45" viewBox="0 0 167 45" fill="none" xmlns="http://www.w3.org/2000/svg">
<path d="M0.88 33V32.16L4.8 30.56L16.36 0.199998H17L27.92 31.56L31.6 32.16V33H19.84V32.16L23.12 31.64L19.72 22.16H9.08L5.84 30.56L9.44 32.16V33H0.88ZM9.4 21.32H19.44L14.64 7.24L9.4 21.32ZM31.83 32.2L34.63 31.8V13.48L31.83 13.08V12.28H38.63V16.6C39.6167 15.16 40.7767 14.0267 42.11 13.2C43.4433 12.3467 44.8833 11.92 46.43 11.92C48.35 11.92 49.8567 12.4 50.95 13.36C52.07 14.32 52.63 15.7467 52.63 17.64V31.8L55.43 32.2V33H46.23V32.2L48.63 31.8V17.72C48.63 16.3333 48.35 15.2667 47.79 14.52C47.23 13.7467 46.3633 13.36 45.19 13.36C43.9633 13.36 42.7767 13.8133 41.63 14.72C40.51 15.6 39.51 16.6933 38.63 18V31.8L41.03 32.2V33H31.83V32.2ZM65.5006 33.4C63.7406 33.4 62.3273 32.96 61.2606 32.08C60.2206 31.2 59.7006 29.8 59.7006 27.88V13.48L56.8606 13.08V12.28H59.7006V8.96L63.7006 7.96V12.28H68.9006V13.08L63.7006 13.48V27.8C63.7006 30.6267 64.714 32.04 66.7406 32.04C67.1673 32.04 67.5673 31.9733 67.9406 31.84C68.3406 31.7067 68.6473 31.5733 68.8606 31.44C69.1006 31.3067 69.2473 31.2133 69.3006 31.16L69.8206 31.8C68.6206 32.8667 67.1806 33.4 65.5006 33.4ZM70.8478 32.2L73.6478 31.8V2.2L70.8478 1.8V1H77.6478V16.6C78.6345 15.16 79.7945 14.0267 81.1278 13.2C82.4611 12.3467 83.9011 11.92 85.4478 11.92C87.3678 11.92 88.8745 12.4 89.9678 13.36C91.0878 14.32 91.6478 15.7467 91.6478 17.64V31.8L94.4478 32.2V33H85.2478V32.2L87.6478 31.8V17.72C87.6478 16.3333 87.3678 15.2667 86.8078 14.52C86.2478 13.7467 85.3811 13.36 84.2078 13.36C82.9811 13.36 81.7945 13.8133 80.6478 14.72C79.5278 15.6 78.5278 16.6933 77.6478 18V31.8L80.0478 32.2V33H70.8478V32.2ZM107.244 33.4C105.324 33.4 103.577 32.96 102.004 32.08C100.431 31.1733 99.1774 29.9067 98.2441 28.28C97.3374 26.6267 96.8841 24.7467 96.8841 22.64C96.8841 20.5333 97.3374 18.6667 98.2441 17.04C99.1774 15.4133 100.431 14.16 102.004 13.28C103.577 12.3733 105.324 11.92 107.244 11.92C109.164 11.92 110.911 12.3733 112.484 13.28C114.057 14.16 115.297 15.4133 116.204 17.04C117.137 18.6667 117.604 20.5333 117.604 22.64C117.604 24.7467 117.137 26.6267 116.204 28.28C115.297 29.9067 114.057 31.1733 112.484 32.08C110.911 32.96 109.164 33.4 107.244 33.4ZM107.244 32.52C109.217 32.52 110.697 31.8 111.684 30.36C112.697 28.92 113.204 27.0133 113.204 24.64V20.64C113.204 18.2667 112.697 16.3733 111.684 14.96C110.697 13.52 109.217 12.8 107.244 12.8C105.271 12.8 103.777 13.52 102.764 14.96C101.777 16.3733 101.284 18.2667 101.284 20.64V24.64C101.284 27.0133 101.777 28.92 102.764 30.36C103.777 31.8 105.271 32.52 107.244 32.52ZM120.385 32.2L123.185 31.8V13.48L120.385 13.08V12.28H127.185V16.6C128.171 15.16 129.331 14.0267 130.665 13.2C131.998 12.3467 133.438 11.92 134.985 11.92C136.905 11.92 138.411 12.4 139.505 13.36C140.625 14.32 141.185 15.7467 141.185 17.64V31.8L143.985 32.2V33H134.785V32.2L137.185 31.8V17.72C137.185 16.3333 136.905 15.2667 136.345 14.52C135.785 13.7467 134.918 13.36 133.745 13.36C132.518 13.36 131.331 13.8133 130.185 14.72C129.065 15.6 128.065 16.6933 127.185 18V31.8L129.585 32.2V33H120.385V32.2ZM149.415 44.68C148.029 44.68 146.909 44.3333 146.055 43.64C145.202 42.9467 144.775 42.0133 144.775 40.84C144.775 40.04 145.002 39.3867 145.455 38.88C145.935 38.4 146.522 38.16 147.215 38.16C147.722 38.16 148.175 38.2667 148.575 38.48C148.975 38.6933 149.295 39.0133 149.535 39.44C149.135 40 148.935 40.5867 148.935 41.2C148.935 41.7333 149.109 42.1733 149.455 42.52C149.802 42.8667 150.242 43.04 150.775 43.04C151.415 43.04 151.962 42.8267 152.415 42.4C152.895 41.9733 153.322 41.2267 153.695 40.16L156.095 33.28L146.815 13.52L144.135 13.12V12.32H154.095V13.12L151.295 13.6L157.975 27.88L162.735 14.12L159.295 13.12V12.32H166.495V13.12L163.775 14.12L154.815 40.16C154.255 41.7333 153.575 42.88 152.775 43.6C152.002 44.32 150.882 44.68 149.415 44.68Z" fill="black"/>
</svg>
